<svg width="356" height="46" viewBox="0 0 356 46" fill="none" xmlns="http://www.w3.org/2000/svg">
<rect width="356" height="46" rx="23" fill="#FF6600"/>
<path d="M164.42 20.78H171.62V22.08H164.42V20.78ZM159.18 31.84H176.82V33.14H159.18V31.84ZM160.02 15.98H166.34V17.24H160.02V15.98ZM165.94 15.98H166.2L166.48 15.9L167.48 16.4C165.98 20.28 162.64 23.18 159.44 24.7C159.24 24.36 158.82 23.84 158.52 23.56C161.46 22.32 164.7 19.46 165.94 16.26V15.98ZM169.32 15.26C170.86 18.72 173.94 21.88 177.44 23.26C177.1 23.56 176.66 24.12 176.4 24.52C172.8 22.88 169.74 19.56 168.02 15.68L169.32 15.26ZM160.02 18.88L160.84 18.04C161.9 18.64 163.14 19.58 163.7 20.28L162.86 21.2C162.28 20.5 161.06 19.52 160.02 18.88ZM173.34 15.38L174.48 16.18C173.44 17.16 172.06 18.24 171.02 18.94L170.1 18.22C171.12 17.48 172.54 16.26 173.34 15.38ZM175.58 17.74L176.7 18.54C175.64 19.54 174.2 20.62 173.1 21.3L172.18 20.58C173.26 19.86 174.74 18.64 175.58 17.74ZM163.66 24.96V27.48H172V24.96H163.66ZM162.16 23.72H173.58V28.72H162.16V23.72ZM163.58 29.32L164.92 28.88C165.44 29.66 165.94 30.7 166.14 31.4L164.72 31.9C164.56 31.2 164.08 30.12 163.58 29.32ZM171.02 28.86L172.48 29.24C171.9 30.38 171.26 31.62 170.72 32.44L169.44 32.06C169.98 31.22 170.68 29.82 171.02 28.86ZM182.54 16.42H188.2V17.94H182.54V16.42ZM187.44 16.42H188.98C188.98 20 189.42 27.6 197.32 32.28C196.98 32.54 196.38 33.18 196.1 33.54C188.1 28.7 187.44 20.18 187.44 16.42ZM186.88 20.34L188.58 20.66C187.14 26.76 184.5 30.98 180.08 33.58C179.8 33.26 179.12 32.64 178.72 32.36C183.16 30.04 185.66 26 186.88 20.34Z" fill="white"/>
</svg>
