<svg width="17" height="14" viewBox="0 0 17 14" fill="none" xmlns="http://www.w3.org/2000/svg">
<path d="M16 6.00012H3.414L7.707 1.70712C8.097 1.31712 8.097 0.684119 7.707 0.293119C7.317 -0.0978808 6.684 -0.0968807 6.293 0.293119L0.293 6.29312C-0.0969998 6.68312 -0.0969998 7.31612 0.293 7.70712L6.293 13.7071C6.488 13.9021 6.743 14.0001 7 14.0001C7.257 14.0001 7.512 13.9021 7.707 13.7071C8.097 13.3171 8.097 12.6841 7.707 12.2931L3.414 8.00012H16C16.553 8.00012 17 7.55312 17 7.00012C17 6.44712 16.553 6.00012 16 6.00012Z" fill="black"/>
</svg>
