<svg width="24" height="24" viewBox="0 0 24 24" fill="none" xmlns="http://www.w3.org/2000/svg">
<path d="M12 21.6381H11.986C9.40301 21.5901 1.95001 14.8561 1.95001 8.47806C1.95001 5.41406 4.47501 2.72406 7.35301 2.72406C9.64301 2.72406 11.183 4.30406 11.999 5.45406C12.813 4.30606 14.353 2.72406 16.644 2.72406C19.524 2.72406 22.048 5.41406 22.048 8.47906C22.048 14.8551 14.594 21.5891 12.011 21.6361H12V21.6381ZM7.35401 4.22506C5.27401 4.22506 3.45101 6.21306 3.45101 8.48006C3.45101 14.2201 10.485 20.0761 12.001 20.1381C13.519 20.0761 20.551 14.2211 20.551 8.48006C20.551 6.21306 18.728 4.22506 16.648 4.22506C14.12 4.22506 12.708 7.16106 12.696 7.19006C12.466 7.75206 11.54 7.75206 11.309 7.19006C11.295 7.16006 9.88401 4.22506 7.35501 4.22506H7.35401Z" fill="#6C757D"/>
</svg>
