<svg width="66" height="38" viewBox="0 0 66 38" fill="none" xmlns="http://www.w3.org/2000/svg">
<rect width="66" height="38" rx="19" fill="#FF6600"/>
<path d="M25.818 21.906H21.984V18.234H25.818V21.906ZM20.4 16.758V23.364H27.492V16.758H20.4ZM18.222 25.884V14.292H29.724V25.884H18.222ZM16.494 12.582V28.422H18.222V27.45H29.724V28.422H31.524V12.582H16.494ZM46.338 25.218C45.816 25.596 45.186 25.902 44.448 26.19C43.62 25.902 42.846 25.596 42.18 25.218H46.338ZM41.784 22.158H47.13V22.788H41.784V22.158ZM41.784 20.754H47.13V21.384H41.784V20.754ZM36.6 15.408H39.084V16.344H36.6V15.408ZM40.578 13.644H43.224V14.364H40.578V13.644ZM47.454 15.408V16.344H44.79V15.408H47.454ZM40.578 16.344V15.408H43.224V16.344H40.578ZM47.76 24.174L47.472 24.228H43.458C43.674 24.03 43.89 23.832 44.07 23.616H48.588V19.926H41.1C41.244 19.746 41.37 19.584 41.478 19.386H49.506V18.252H42.18C42.27 18.072 42.342 17.874 42.432 17.712L41.262 17.388H49.038V14.364H44.79V13.644H49.776V12.474H34.26V13.644H39.084V14.364H35.088V17.388H40.956C40.452 18.504 39.642 19.566 38.742 20.358L37.5 19.926C36.744 21.258 35.16 22.788 33.666 23.724C33.936 23.976 34.368 24.48 34.584 24.804C35.052 24.48 35.538 24.102 36.006 23.724V28.422H37.482V22.284C37.878 21.852 38.238 21.42 38.562 20.97C38.886 21.222 39.246 21.546 39.426 21.744C39.75 21.474 40.074 21.15 40.398 20.79V23.616H42.324C41.964 23.922 41.514 24.21 41.028 24.48C40.722 24.246 40.452 23.994 40.2 23.724L39.048 24.156C39.318 24.462 39.606 24.768 39.912 25.02C39.498 25.218 39.03 25.398 38.58 25.56C38.85 25.776 39.264 26.208 39.462 26.46C39.984 26.28 40.506 26.064 40.992 25.83C41.478 26.154 42.054 26.46 42.63 26.73C41.244 27.036 39.714 27.234 38.148 27.324C38.382 27.63 38.652 28.098 38.778 28.458C40.74 28.26 42.684 27.954 44.376 27.396C45.852 27.882 47.508 28.206 49.218 28.404C49.38 28.044 49.686 27.522 49.974 27.234C48.642 27.126 47.382 26.928 46.176 26.658C47.184 26.136 48.03 25.488 48.624 24.678L47.76 24.174ZM37.086 17.496C36.402 18.504 35.016 19.656 33.756 20.358C34.044 20.61 34.512 21.114 34.746 21.402C36.132 20.592 37.608 19.26 38.544 17.964L37.086 17.496Z" fill="white"/>
</svg>
