<svg width="88" height="46" viewBox="0 0 88 46" fill="none" xmlns="http://www.w3.org/2000/svg">
<rect width="88" height="46" rx="23" fill="#FF6600"/>
<path d="M35.4 17.56H40.52V18.8H35.4V17.56ZM35.02 21.46H43.24V22.72H35.02V21.46ZM29.4 18.84H34.94V20.04H29.4V18.84ZM30.02 21.5H34.56V22.72H30.02V21.5ZM30.02 24.22H34.56V25.4H30.02V24.22ZM37.4 15.32H38.68V22.32H37.4V15.32ZM41.72 15.88L43 16.18C41.4 20.98 38.72 24.82 35.22 27.3C35.04 27.04 34.58 26.48 34.3 26.22C37.74 24 40.28 20.32 41.72 15.88ZM36.74 24.74H42.54V33.44H41.18V26H38.04V33.6H36.74V24.74ZM37.36 28.08H41.78V29.3H37.36V28.08ZM37.36 31.44H41.78V32.7H37.36V31.44ZM28.28 15.32L29.58 15.68C28.58 19.14 27 22.68 25.24 25.02C25.12 24.66 24.72 23.86 24.48 23.5C26.04 21.46 27.42 18.38 28.28 15.32ZM26.78 20.5L28.04 19.14L28.06 19.18V33.58H26.78V20.5ZM30.8 16.12L31.76 15.52C32.32 16.2 32.94 17.12 33.18 17.74L32.2 18.42C31.96 17.76 31.36 16.8 30.8 16.12ZM29.78 27.06H34.76V33.08H33.5V28.26H31V33.38H29.78V27.06ZM30.18 31.02H34.22V32.2H30.18V31.02ZM50.7 26.7H63.14V28.1H50.7V26.7ZM52.4 21.52H60.64V22.9H52.4V21.52ZM56.26 25.04H57.78V31.82C57.78 32.7 57.58 33.14 56.92 33.38C56.24 33.6 55.14 33.6 53.42 33.58C53.34 33.18 53.14 32.6 52.94 32.16C54.28 32.22 55.46 32.22 55.82 32.18C56.18 32.16 56.26 32.08 56.26 31.8V25.04ZM60.24 21.52H60.6L60.92 21.44L61.88 22.18C60.62 23.56 58.74 25 57.08 25.92C56.9 25.66 56.5 25.26 56.26 25.04C57.72 24.26 59.4 22.84 60.24 21.8V21.52ZM45.24 17.82H62.76V19.26H45.24V17.82ZM51.7 15.2L53.24 15.58C51.84 20.18 49.38 24.84 45.38 27.7C45.2 27.32 44.84 26.66 44.6 26.32C48.24 23.78 50.58 19.34 51.7 15.2ZM47.76 23.38H49.26V33.58H47.76V23.38Z" fill="white"/>
</svg>
