<svg width="17" height="21" viewBox="0 0 17 21" fill="none" xmlns="http://www.w3.org/2000/svg">
<g id="Group">
<path id="Vector" d="M8.225 10.165C6.869 10.165 5.35299 10.015 4.38499 8.909C3.57099 7.979 3.30799 6.541 3.57999 4.517C3.95999 1.691 5.69599 0.0039978 8.22599 0.0039978C10.756 0.0039978 12.493 1.691 12.872 4.517C13.144 6.541 12.88 7.977 12.066 8.909C11.096 10.015 9.58099 10.164 8.22599 10.164L8.225 10.165ZM14.074 20.015H2.37599C1.71299 20.015 1.12599 19.735 0.725995 19.229C0.303995 18.695 0.149995 17.959 0.315995 17.261C1.14999 13.731 4.40199 11.264 8.22399 11.264C12.046 11.264 15.298 13.73 16.134 17.261C16.298 17.959 16.144 18.695 15.722 19.228C15.322 19.733 14.737 20.013 14.074 20.013V20.015Z" fill="#FF6600"/>
</g>
</svg>
