<svg width="356" height="46" viewBox="0 0 356 46" fill="none" xmlns="http://www.w3.org/2000/svg">
<rect width="356" height="46" rx="23" fill="#FF6600"/>
<path d="M159.92 21.28H165.86V22.48H159.92V21.28ZM159.62 24.08H165.88V25.28H159.62V24.08ZM158.9 18.4H166.32V19.68H158.9V18.4ZM166.84 19.1H176.78V20.52H166.84V19.1ZM166.5 31.32H177.18V32.74H166.5V31.32ZM167.18 24.74H176.34V26.14H167.18V24.74ZM160.68 26.78H165.82V32.34H160.68V31.14H164.42V27.96H160.68V26.78ZM160 26.78H161.38V33.32H160V26.78ZM170.92 19.7H172.4V32.04H170.92V19.7ZM161.34 15.82L162.48 15.28C163.06 16.02 163.66 17.06 163.9 17.72L162.68 18.36C162.46 17.66 161.9 16.62 161.34 15.82ZM169.5 15.86L170.66 15.22C171.48 16.16 172.38 17.46 172.78 18.3L171.54 19.04C171.18 18.18 170.3 16.84 169.5 15.86ZM180.76 16.44H194.74V17.92H182.24V33.66H180.76V16.44ZM193.96 16.44H195.46V31.82C195.46 32.62 195.3 33.06 194.78 33.32C194.28 33.58 193.5 33.62 192.32 33.62C192.28 33.22 192.06 32.54 191.84 32.14C192.66 32.18 193.42 32.16 193.64 32.16C193.88 32.16 193.96 32.06 193.96 31.8V16.44ZM178.8 23.68H197.24V25.14H178.8V23.68ZM185.1 16.94H186.5V33.4H185.1V16.94ZM189.5 16.94H190.92V33.4H189.5V16.94Z" fill="white"/>
</svg>
